<svg width="19" height="19" viewBox="0 0 19 19" fill="none" xmlns="http://www.w3.org/2000/svg">
<path d="M7.32197 0.19873H1.34273C1.07843 0.19873 0.824959 0.303723 0.638071 0.49061C0.451184 0.677498 0.346191 0.930972 0.346191 1.19527V7.17451C0.346191 7.43881 0.451184 7.69228 0.638071 7.87917C0.824959 8.06606 1.07843 8.17105 1.34273 8.17105H7.32197C7.58627 8.17105 7.83974 8.06606 8.02663 7.87917C8.21352 7.69228 8.31851 7.43881 8.31851 7.17451V1.19527C8.31851 0.930972 8.21352 0.677498 8.02663 0.49061C7.83974 0.303723 7.58627 0.19873 7.32197 0.19873ZM17.2874 0.19873H11.3081C11.0438 0.19873 10.7904 0.303723 10.6035 0.49061C10.4166 0.677498 10.3116 0.930972 10.3116 1.19527V7.17451C10.3116 7.43881 10.4166 7.69228 10.6035 7.87917C10.7904 8.06606 11.0438 8.17105 11.3081 8.17105H17.2874C17.5517 8.17105 17.8051 8.06606 17.992 7.87917C18.1789 7.69228 18.2839 7.43881 18.2839 7.17451V1.19527C18.2839 0.930972 18.1789 0.677498 17.992 0.49061C17.8051 0.303723 17.5517 0.19873 17.2874 0.19873ZM7.32197 10.1641H1.34273C1.07843 10.1641 0.824959 10.2691 0.638071 10.456C0.451184 10.6429 0.346191 10.8964 0.346191 11.1607V17.1399C0.346191 17.4042 0.451184 17.6577 0.638071 17.8446C0.824959 18.0315 1.07843 18.1364 1.34273 18.1364H7.32197C7.58627 18.1364 7.83974 18.0315 8.02663 17.8446C8.21352 17.6577 8.31851 17.4042 8.31851 17.1399V11.1607C8.31851 10.8964 8.21352 10.6429 8.02663 10.456C7.83974 10.2691 7.58627 10.1641 7.32197 10.1641ZM14.2977 10.1641C15.0776 10.1641 15.8404 10.3929 16.4916 10.8221C17.1427 11.2514 17.6537 11.8622 17.9611 12.5789C18.2686 13.2957 18.359 14.0869 18.2212 14.8545C18.0834 15.6221 17.7235 16.3325 17.186 16.8976C16.6485 17.4627 15.957 17.8577 15.1972 18.0336C14.4374 18.2096 13.6427 18.1589 12.9115 17.8876C12.1803 17.6164 11.5447 17.1367 11.0834 16.5078C10.6222 15.8789 10.3556 15.1285 10.3166 14.3496L10.3116 14.1503L10.3166 13.951C10.3677 12.9296 10.8095 11.9669 11.5505 11.262C12.2915 10.5572 13.2751 10.1641 14.2977 10.1641Z" fill="#028430"/>
</svg>
