<svg width="18" height="18" viewBox="0 0 18 18" fill="none" xmlns="http://www.w3.org/2000/svg">
<path d="M8.99997 16.5C10.6358 16.4996 12.2266 15.9645 13.53 14.9761C14.8334 13.9877 15.7779 12.6003 16.2197 11.0253C16.6614 9.45034 16.5761 7.7741 15.9768 6.25208C15.3774 4.73005 14.2969 3.4457 12.8999 2.59474C11.5029 1.74379 9.86598 1.37289 8.23862 1.53858C6.61125 1.70427 5.08268 2.39746 3.88584 3.5125C2.68899 4.62755 1.88951 6.10331 1.60922 7.7149C1.32893 9.32648 1.58321 10.9855 2.33331 12.4392L1.49997 16.5L5.56081 15.6667C6.59081 16.1992 7.76081 16.5 8.99997 16.5Z" stroke="#949494" stroke-width="1.5" stroke-linecap="round" stroke-linejoin="round"/>
<path d="M5.25 9H5.25833V9.00833H5.25V9ZM9 9H9.00833V9.00833H9V9ZM12.75 9H12.7583V9.00833H12.75V9Z" stroke="#949494" stroke-width="2.25" stroke-linejoin="round"/>
</svg>
