<svg width="16" height="17" viewBox="0 0 16 17" fill="none" xmlns="http://www.w3.org/2000/svg">
<path d="M9.12417 0.98167C9.18999 0.866597 9.2907 0.775434 9.41173 0.721357C9.53277 0.667279 9.66787 0.653089 9.7975 0.680836L9.90333 0.703336C10.3442 0.797779 10.7604 0.983504 11.1252 1.24855C11.4899 1.5136 11.7952 1.8521 12.0212 2.24225C12.2472 2.63241 12.389 3.06556 12.4374 3.51384C12.4859 3.96211 12.4399 4.41557 12.3025 4.845L11.7725 6.5H12.72C14.9242 6.5 16.4808 8.65917 15.7833 10.75L14.4842 14.6483C14.3044 15.1875 13.9595 15.6565 13.4984 15.9888C13.0373 16.3211 12.4834 16.5 11.915 16.5H7.5075C6.64986 16.5002 5.81808 16.2063 5.15083 15.6675C5.03245 15.9167 4.84582 16.1272 4.61262 16.2745C4.37941 16.4219 4.10919 16.5001 3.83333 16.5H1.95833C1.57156 16.5 1.20063 16.3464 0.927136 16.0729C0.653645 15.7994 0.5 15.4284 0.5 15.0417V7.95834C0.5 7.15334 1.15333 6.5 1.95833 6.5H5.85C5.88672 6.49999 5.92279 6.49027 5.95454 6.47183C5.9863 6.45339 6.01262 6.42689 6.03083 6.395L9.12417 0.98167ZM5.29167 14.1333L5.86083 14.6317C6.3167 15.0304 6.90183 15.2502 7.5075 15.25H11.915C12.2211 15.2499 12.5194 15.1536 12.7677 14.9745C13.016 14.7955 13.2016 14.5429 13.2983 14.2525L14.5975 10.355C14.6967 10.0575 14.7237 9.7407 14.6764 9.4307C14.6291 9.12069 14.5088 8.82636 14.3255 8.57196C14.1421 8.31756 13.901 8.11037 13.6218 7.96746C13.3427 7.82455 13.0336 7.75002 12.72 7.75H10.9167C10.8183 7.74998 10.7212 7.72671 10.6335 7.6821C10.5458 7.63749 10.4698 7.5728 10.4119 7.49328C10.3539 7.41377 10.3155 7.32169 10.2998 7.22453C10.2841 7.12737 10.2916 7.02788 10.3217 6.93417L11.1117 4.46417C11.2641 3.98826 11.2309 3.47229 11.0187 3.01985C10.8065 2.56742 10.4309 2.21202 9.9675 2.025L7.11583 7.015C6.98834 7.23821 6.80411 7.42375 6.58181 7.55282C6.35952 7.6819 6.10705 7.74992 5.85 7.75H5.29167V14.1333ZM4.04167 7.75H1.95833C1.90308 7.75 1.85009 7.77195 1.81102 7.81102C1.77195 7.85009 1.75 7.90308 1.75 7.95834V15.0417C1.75 15.1567 1.84333 15.25 1.95833 15.25H3.83333C3.88859 15.25 3.94158 15.2281 3.98065 15.189C4.01972 15.1499 4.04167 15.0969 4.04167 15.0417V7.75Z" fill="#949494"/>
</svg>
