<svg width="25" height="23" viewBox="0 0 25 23" fill="none" xmlns="http://www.w3.org/2000/svg">
<path d="M17.4361 14.1323H16.3558L15.9729 13.7855C17.3594 12.2747 18.1214 10.3458 18.1198 8.35098C18.1198 6.69934 17.5985 5.08479 16.6218 3.7115C15.6451 2.3382 14.2569 1.26785 12.6328 0.635797C11.0086 0.00374035 9.22144 -0.161634 7.49723 0.160585C5.77303 0.482805 4.18925 1.27815 2.94616 2.44604C1.70308 3.61392 0.856533 5.1019 0.513568 6.72181C0.170602 8.34172 0.346625 10.0208 1.01938 11.5467C1.69213 13.0726 2.83139 14.3769 4.2931 15.2945C5.75481 16.2121 7.47331 16.7018 9.2313 16.7018C11.4329 16.7018 13.4568 15.9438 15.0157 14.6848L15.3849 15.0445V16.0595L22.2222 22.4704L24.2597 20.5561L17.4361 14.1323ZM9.2313 14.1323C5.82631 14.1323 3.07771 11.55 3.07771 8.35098C3.07771 5.15196 5.82631 2.56962 9.2313 2.56962C12.6363 2.56962 15.3849 5.15196 15.3849 8.35098C15.3849 11.55 12.6363 14.1323 9.2313 14.1323Z" fill="#028430"/>
</svg>
