<svg width="27" height="27" viewBox="0 0 27 27" fill="none" xmlns="http://www.w3.org/2000/svg">
<path d="M13.5001 8.01562C14.4179 8.01562 15.3151 8.28779 16.0783 8.79771C16.8414 9.30763 17.4362 10.0324 17.7875 10.8804C18.1387 11.7283 18.2306 12.6614 18.0516 13.5616C17.8725 14.4618 17.4305 15.2887 16.7815 15.9377C16.1325 16.5867 15.3056 17.0286 14.4054 17.2077C13.5053 17.3868 12.5722 17.2949 11.7242 16.9436C10.8762 16.5924 10.1515 15.9976 9.64156 15.2344C9.13165 14.4713 8.85948 13.5741 8.85948 12.6562C8.85948 11.4255 9.3484 10.2451 10.2187 9.37483C11.089 8.50455 12.2693 8.01562 13.5001 8.01562ZM24.3845 7.80469C24.3098 7.93407 24.2021 8.04131 24.0724 8.11543C23.9427 8.18955 23.7956 8.2279 23.6462 8.22656C23.4975 8.22776 23.3515 8.18759 23.2243 8.11055L22.7392 7.82578C22.5028 8.02845 22.2311 8.18577 21.9376 8.28984V8.85938C21.9376 9.08315 21.8487 9.29776 21.6905 9.456C21.5322 9.61423 21.3176 9.70312 21.0939 9.70312C20.8701 9.70312 20.6555 9.61423 20.4972 9.456C20.339 9.29776 20.2501 9.08315 20.2501 8.85938V8.28984C19.9566 8.18577 19.6849 8.02845 19.4485 7.82578L18.9634 8.11055C18.8362 8.18759 18.6902 8.22776 18.5415 8.22656C18.3567 8.22545 18.1774 8.1637 18.0311 8.05079C17.8848 7.93789 17.7796 7.78007 17.7317 7.60159C17.6838 7.42311 17.6958 7.23384 17.7659 7.06284C17.836 6.89185 17.9602 6.74859 18.1196 6.65508L18.6048 6.37031C18.5746 6.21752 18.5605 6.06198 18.5626 5.90625C18.5605 5.75052 18.5746 5.59498 18.6048 5.44219L18.1196 5.15742C18.0224 5.10369 17.9369 5.03105 17.8681 4.94378C17.7994 4.85651 17.7488 4.75637 17.7193 4.64926C17.6898 4.54215 17.6821 4.43022 17.6965 4.32006C17.7109 4.2099 17.7472 4.10374 17.8032 4.00781C17.9176 3.8146 18.1035 3.67419 18.3206 3.61695C18.5377 3.55971 18.7686 3.59025 18.9634 3.70195L19.4485 3.98672C19.6849 3.78405 19.9566 3.62673 20.2501 3.52266V2.95312C20.2501 2.72935 20.339 2.51474 20.4972 2.3565C20.6555 2.19827 20.8701 2.10938 21.0939 2.10938C21.3176 2.10938 21.5322 2.19827 21.6905 2.3565C21.8487 2.51474 21.9376 2.72935 21.9376 2.95312V3.52266C22.2311 3.62673 22.5028 3.78405 22.7392 3.98672L23.2243 3.70195C23.4191 3.59025 23.65 3.55971 23.8671 3.61695C24.0842 3.67419 24.2701 3.8146 24.3845 4.00781C24.4405 4.10374 24.4768 4.2099 24.4912 4.32006C24.5057 4.43022 24.4979 4.54215 24.4684 4.64926C24.4389 4.75637 24.3883 4.85651 24.3196 4.94378C24.2508 5.03105 24.1653 5.10369 24.0681 5.15742L23.5829 5.44219C23.6131 5.59498 23.6272 5.75052 23.6251 5.90625C23.6272 6.06198 23.6131 6.21752 23.5829 6.37031L24.0681 6.65508C24.1653 6.70881 24.2508 6.78145 24.3196 6.86872C24.3883 6.95599 24.4389 7.05613 24.4684 7.16324C24.4979 7.27035 24.5057 7.38228 24.4912 7.49244C24.4768 7.6026 24.4405 7.70876 24.3845 7.80469ZM21.0939 6.75C21.2607 6.75 21.4239 6.70051 21.5626 6.6078C21.7014 6.51509 21.8095 6.38331 21.8734 6.22914C21.9372 6.07496 21.9539 5.90531 21.9214 5.74164C21.8888 5.57797 21.8085 5.42763 21.6905 5.30963C21.5725 5.19163 21.4221 5.11127 21.2585 5.07871C21.0948 5.04616 20.9251 5.06287 20.771 5.12673C20.6168 5.19059 20.485 5.29873 20.3923 5.43749C20.2996 5.57624 20.2501 5.73937 20.2501 5.90625C20.2501 6.13003 20.339 6.34464 20.4972 6.50287C20.6555 6.66111 20.8701 6.75 21.0939 6.75ZM23.4564 11.4539C23.2359 11.4804 23.0348 11.5926 22.8966 11.7664C22.7584 11.9401 22.6943 12.1613 22.7181 12.382C22.7602 12.7532 22.7813 13.1265 22.7814 13.5C22.7845 15.7711 21.9509 17.9638 20.4399 19.6594C19.757 18.6797 18.8768 17.8534 17.856 17.2336C16.6838 18.3565 15.1233 18.9834 13.5001 18.9834C11.8769 18.9834 10.3164 18.3565 9.14424 17.2336C8.12338 17.8534 7.24325 18.6797 6.56026 19.6594C5.37354 18.3217 4.59851 16.6697 4.3284 14.902C4.05828 13.1343 4.30457 11.3262 5.03765 9.69515C5.77072 8.06411 6.95937 6.67956 8.46065 5.70803C9.96192 4.73649 11.7119 4.21934 13.5001 4.21875C13.7889 4.21701 14.0777 4.2311 14.3649 4.26094C14.4757 4.27063 14.5874 4.25841 14.6935 4.22496C14.7995 4.19152 14.898 4.13751 14.9832 4.06601C15.0684 3.99452 15.1387 3.90694 15.19 3.80829C15.2414 3.70963 15.2728 3.60182 15.2825 3.49102C15.2922 3.38021 15.28 3.26859 15.2466 3.16251C15.2131 3.05643 15.1591 2.95798 15.0876 2.87277C15.0161 2.78757 14.9285 2.71728 14.8299 2.66592C14.7312 2.61456 14.6234 2.58313 14.5126 2.57344C14.1857 2.5418 13.8376 2.53125 13.5001 2.53125C11.2899 2.53202 9.13154 3.20045 7.30778 4.44896C5.48401 5.69746 4.07996 7.4678 3.2796 9.52797C2.47925 11.5881 2.31993 13.842 2.82253 15.9943C3.32513 18.1466 4.46619 20.0968 6.0962 21.5895L6.23331 21.716C8.23854 23.4895 10.8231 24.4685 13.5001 24.4685C16.1771 24.4685 18.7617 23.4895 20.7669 21.716L20.904 21.5895C22.0284 20.5634 22.9263 19.3139 23.5401 17.9209C24.154 16.528 24.4703 15.0222 24.4689 13.5C24.4709 13.063 24.4462 12.6262 24.395 12.1922C24.382 12.082 24.3473 11.9756 24.293 11.8788C24.2388 11.7821 24.166 11.697 24.0788 11.6284C23.9916 11.5598 23.8917 11.5091 23.7849 11.4792C23.6781 11.4492 23.5665 11.4407 23.4564 11.4539Z" fill="white"/>
</svg>
