<svg width="10" height="15" viewBox="0 0 10 15" fill="none" xmlns="http://www.w3.org/2000/svg">
<path fill-rule="evenodd" clip-rule="evenodd" d="M0.901244 13.5758C0.900547 13.8147 0.97071 14.0485 1.10286 14.2476C1.23502 14.4467 1.42323 14.6021 1.6437 14.6942C1.86418 14.7863 2.10702 14.811 2.34152 14.7652C2.57603 14.7193 2.79167 14.6049 2.96118 14.4365L9.02174 8.41379C9.24898 8.18791 9.37719 7.88102 9.3782 7.56061C9.3792 7.24021 9.25291 6.93252 9.02709 6.70522L3.00437 0.64466C2.83592 0.475195 2.621 0.359482 2.38678 0.312146C2.15257 0.264809 1.90958 0.287978 1.68853 0.378721C1.46749 0.469463 1.27831 0.623706 1.14491 0.821952C1.01151 1.0202 0.939883 1.25354 0.939084 1.49249L0.901244 13.5758Z" fill="#028430"/>
</svg>
