<svg width="16" height="16" viewBox="0 0 16 16" fill="none" xmlns="http://www.w3.org/2000/svg">
<path d="M1.2002 4.0062H14.8002M5.133 3.9998V3.6334C5.133 2.88189 5.43153 2.16115 5.96294 1.62975C6.49434 1.09834 7.21508 0.799805 7.9666 0.799805C8.71811 0.799805 9.43885 1.09834 9.97025 1.62975C10.5017 2.16115 10.8002 2.88189 10.8002 3.6334V3.9998M6.3826 7.1998V11.9998M9.6242 7.1998V11.9998M11.6002 15.1998H4.4002C3.97585 15.1998 3.56888 15.0312 3.26882 14.7312C2.96877 14.4311 2.8002 14.0242 2.8002 13.5998V3.9998H13.2002V13.5998C13.2002 14.0242 13.0316 14.4311 12.7316 14.7312C12.4315 15.0312 12.0245 15.1998 11.6002 15.1998Z" stroke="#CF2B27" stroke-width="1.28" stroke-linecap="round" stroke-linejoin="round"/>
</svg>
